<?xml version="1.0" encoding="utf-8" ?>
<svg xmlns="http://www.w3.org/2000/svg" xmlns:xlink="http://www.w3.org/1999/xlink" width="691" height="345">
	<path fill="#E0E0DE" transform="scale(0.33724 0.33724)" d="M1921.84 217.956C1931.26 221.387 1947.58 239.831 1952.59 248.752L1952.38 250.382L1944.22 250.143C1944.06 244.259 1925.65 225.161 1921.84 217.956Z"/>
	<path fill="#E0E0DE" transform="scale(0.33724 0.33724)" d="M151.102 823.346C151.319 823.374 151.538 823.397 151.755 823.431C157.846 824.372 164.34 827.833 170.108 830.12C180.933 834.413 192.631 838.096 204.241 839.41C225.893 841.86 247.787 840.368 269.514 840.105L363.584 839.565L688.15 839.882L1521.43 839.878L1769.25 839.972C1779.8 840.015 1823.02 838.289 1829.66 840.099C1824.37 843.57 1794.49 843.188 1786.07 843.188C1755.25 843.19 1724.14 841.932 1693.35 842.883C1687.58 843.061 1683.03 847.079 1677.41 847.114C1673.34 847.14 1670.75 843.633 1666.68 843.504C1647.22 842.887 1627.51 843.914 1608.02 844.182C1595.31 844.358 1582.61 843.75 1569.9 843.846C1564.08 843.89 1559.61 847.723 1553.97 847.689C1546.55 847.644 1505.3 847.739 1502.22 844.599C1519.85 843.09 1537.68 846.533 1555.4 844.075C1540.09 842.215 1523.96 843.105 1508.52 843.113C1476.7 843.129 1444.8 843.843 1413 843.684L1049.69 843.191L496.69 844.332L351.787 844.325C331.244 844.2 310.645 842.564 290.108 843.085C276.509 843.43 262.944 845.434 249.35 846.142C239.878 846.635 230.317 842.343 221.031 843.378C213.905 844.173 208.373 849.038 201.836 850.209C192.398 851.9 158.91 829.549 151.102 823.346Z"/>
	<path fill="#F8FAF8" transform="scale(0.33724 0.33724)" d="M151.102 823.346C150.949 823.274 150.793 823.209 150.644 823.13C117.892 805.718 90.1849 772.759 79.2512 737.378C75.5228 725.313 72.9781 712.481 72.1488 699.871C70.4436 673.94 71.6119 647.356 71.7121 621.344L71.8859 492.64L71.9559 378.698C71.9699 355.038 70.8956 330.712 73.3613 307.168C75.4801 286.936 80.7826 266.9 90.3922 248.89C109.273 213.504 140.125 187.033 178.63 175.328C206.911 166.732 236.921 168.96 266.097 169.091L334.255 169.327L517.095 169.399L1271.89 169.481L1629.33 169.375L1749.06 169.158C1770.72 169.128 1792.69 168.368 1814.31 169.416C1836.39 170.487 1858.28 175.746 1877.83 186.212C1885.4 190.26 1919.84 211.35 1921.84 217.956C1925.65 225.161 1944.06 244.259 1944.22 250.143C1949.06 267.277 1957.25 283.103 1959.28 301.03C1962.87 332.527 1961.04 364.833 1961.08 396.499Q1961.69 474.519 1961.28 552.541Q1961.09 599.752 1961.38 646.962C1961.54 667.641 1962.97 689.324 1960.7 709.891Q1960.29 713.515 1959.7 717.113Q1959.11 720.711 1958.34 724.276Q1957.56 727.839 1956.61 731.36Q1955.66 734.881 1954.54 738.349Q1953.41 741.817 1952.11 745.224Q1950.81 748.631 1949.34 751.969Q1947.87 755.306 1946.23 758.565Q1944.6 761.824 1942.8 764.996C1924.21 798.38 1889.31 825.709 1852.52 835.998C1845.32 838.011 1837.16 840.072 1829.66 840.099C1823.02 838.289 1779.8 840.015 1769.25 839.972L1521.43 839.878L688.15 839.882L363.584 839.565L269.514 840.105C247.787 840.368 225.893 841.86 204.241 839.41C192.631 838.096 180.933 834.413 170.108 830.12C164.34 827.833 157.846 824.372 151.755 823.431C151.538 823.397 151.319 823.374 151.102 823.346Z"/>
	<path fill="#0B3855" transform="scale(0.33724 0.33724)" d="M1485.65 191.164Q1602.28 189.911 1718.91 190.945L1781.2 190.787C1799.78 190.731 1819.25 189.582 1837.49 193.541Q1839.68 194.038 1841.86 194.611Q1844.03 195.184 1846.19 195.831Q1848.34 196.478 1850.47 197.199Q1852.6 197.92 1854.71 198.715Q1856.81 199.509 1858.89 200.375Q1860.96 201.241 1863.01 202.178Q1865.05 203.115 1867.06 204.122Q1869.07 205.129 1871.05 206.205Q1873.02 207.28 1874.96 208.423Q1876.9 209.566 1878.79 210.776Q1880.69 211.985 1882.54 213.259Q1884.4 214.532 1886.2 215.869Q1888.01 217.206 1889.77 218.605Q1891.54 220.003 1893.25 221.461Q1894.96 222.919 1896.62 224.436Q1898.28 225.952 1899.89 227.525C1930.12 256.935 1939.55 292.334 1940 333.42C1940.88 413.449 1939.99 493.524 1939.9 573.558L1939.88 647.078C1939.86 671.933 1940.89 697.334 1935.7 721.783Q1935.26 723.799 1934.74 725.798Q1934.23 727.798 1933.65 729.778Q1933.06 731.758 1932.41 733.716Q1931.76 735.673 1931.03 737.607Q1930.31 739.541 1929.52 741.448Q1928.73 743.355 1927.87 745.233Q1927.02 747.11 1926.09 748.957Q1925.17 750.803 1924.18 752.616Q1923.2 754.428 1922.14 756.205Q1921.09 757.982 1919.98 759.72Q1918.87 761.458 1917.69 763.156Q1916.52 764.854 1915.29 766.509Q1914.05 768.165 1912.76 769.775Q1911.47 771.386 1910.12 772.95Q1908.78 774.514 1907.38 776.03Q1905.97 777.545 1904.52 779.01C1876.26 807.875 1841.11 817.905 1801.65 818.214L1645.67 818.29L1559.44 818.374C1547.18 818.348 1534.96 819.267 1522.69 818.747L698.264 819.08L384.535 819.125L281.505 819.191C262.389 819.203 243.121 819.694 224.019 818.959C186.725 817.525 153.372 805.249 127.748 777.384C113.951 762.381 102.081 742.19 98.0092 722.053C93.5633 700.063 95.4386 676.697 95.4857 654.385L95.5606 562.809L95.0269 401.405C95.0211 372.907 94.4466 344.155 95.7761 315.692Q95.8401 314.077 95.9441 312.463Q96.048 310.85 96.1919 309.239Q96.3358 307.629 96.5195 306.023Q96.7032 304.417 96.9266 302.815Q97.15 301.214 97.413 299.619Q97.676 298.024 97.9784 296.435Q98.2808 294.847 98.6224 293.267Q98.964 291.687 99.3446 290.115Q99.7253 288.544 100.145 286.983Q100.564 285.421 101.022 283.871Q101.48 282.32 101.976 280.781Q102.472 279.243 103.006 277.717Q103.541 276.191 104.112 274.678Q104.684 273.166 105.293 271.669Q105.902 270.171 106.548 268.689Q107.194 267.207 107.876 265.741Q108.559 264.275 109.277 262.827Q109.995 261.379 110.75 259.948Q111.504 258.518 112.293 257.107Q113.082 255.696 113.906 254.305Q114.73 252.914 115.588 251.544Q116.446 250.174 117.338 248.825Q118.23 247.477 119.155 246.151Q120.08 244.825 121.037 243.522Q121.995 242.219 122.984 240.941Q123.973 239.662 124.994 238.408Q126.015 237.154 127.066 235.926Q128.118 234.698 129.199 233.496Q130.281 232.295 131.392 231.12Q132.503 229.946 133.643 228.799Q134.782 227.652 135.95 226.534Q137.118 225.416 138.313 224.327C157.194 207.214 181.662 195.185 207.089 192.208C227.087 189.867 247.768 190.915 267.888 190.942L364.262 191.009L708.919 191.002L1225.25 190.957L1393.7 190.858C1424.26 190.831 1455.14 189.671 1485.65 191.164Z"/>
	<path fill="#F8FAF8" transform="scale(0.33724 0.33724)" d="M1422.71 526.5C1446.03 525.064 1469.78 525.829 1493.14 525.952C1507.71 526.029 1524.29 524.754 1538.6 527.378C1540.28 529.303 1540.67 530.959 1540.85 533.501C1541.16 537.693 1541.41 546.155 1538.48 549.293C1536.5 551.411 1499.15 550.158 1493.57 550.19C1497.62 560.614 1496.71 623.364 1492.8 632.489C1494 634.063 1494.51 634.672 1494.83 636.645C1496.35 645.964 1497.69 668.344 1492.12 676.073L1467.16 676.06C1467.69 675.296 1468.17 674.479 1468.45 673.588C1471.48 663.844 1470.77 556.924 1467.25 550.366C1452.88 548.19 1437.41 551.379 1422.84 549.582C1421.65 548.077 1422.92 530.277 1422.71 526.5Z"/>
	<path fill="#F8FAF8" transform="scale(0.33724 0.33724)" d="M1023.55 291L1100.81 291.067C1104.11 294.891 1104.42 302.653 1103.98 307.503C1103.73 310.253 1103.11 312.454 1100.96 314.34C1084.69 315.636 1068.63 313.443 1052.25 315.526C1055.49 320.697 1056.58 387.949 1054.57 396.571C1054.38 397.371 1054.03 398.133 1053.65 398.856C1055.94 404.406 1055.56 437.28 1053.08 442.791C1052.83 443.354 1052.51 443.834 1052.14 444.319C1045.67 444.393 1031.97 446.082 1026.25 443.086L1025.33 440.817C1028.59 433.026 1028.3 400.123 1026.93 391.246C1028.65 380.104 1028.4 323.345 1024.78 315.164C1014.09 312.819 988.475 314.845 976.01 314.932C977.051 306.981 976.866 299.003 976.812 291.003L1023.55 291Z"/>
	<path fill="#F8FAF8" transform="scale(0.33724 0.33724)" d="M1746.58 375.499C1752.58 374.487 1759.34 375.049 1765.44 375.091C1771.91 379.344 1765.96 385.349 1768.67 390.203C1770.28 393.081 1775.28 393.246 1777.36 396.752C1782.07 393.967 1786.05 389.69 1789.63 385.611Q1791.16 386.283 1792.59 387.158Q1794.02 388.032 1795.31 389.092C1798.96 392.062 1803.2 395.952 1803.73 400.883C1803.69 401.407 1803.71 401.291 1803.56 401.911C1802.4 406.524 1796.96 409.589 1793.2 411.852C1793.32 411.945 1793.44 412.033 1793.55 412.13C1796.62 414.74 1797.52 419.178 1797.94 422.987C1801.35 422.95 1807.3 422.173 1810.3 423.732C1811.8 424.513 1812.82 425.884 1813.28 427.51C1814.38 431.38 1815.23 437.257 1813.15 440.873C1808.95 443.348 1804.4 441.388 1799.92 442.977C1797.5 443.837 1795.86 445.716 1794.94 448.088C1792.37 454.73 1800.44 456.547 1802.46 461.722C1802.52 461.853 1802.56 461.988 1802.6 462.122C1802.54 462.318 1802.49 462.519 1802.41 462.71C1800.19 468.095 1795.08 471.985 1789.96 474.331C1787.42 469.367 1784.12 466.217 1779.2 463.64C1775.78 466.222 1771.64 467.807 1767.75 469.554C1768.49 474.302 1768.71 477.968 1766.31 482.272C1766.33 483.141 1766.03 483.697 1765.72 484.496C1760.19 485.818 1753.59 485.032 1747.92 484.93C1748.1 484.537 1748.32 484.091 1748.46 483.67C1749.63 480.129 1750.23 474.609 1748.48 471.202C1746.02 466.401 1741.41 465.368 1736.68 463.875C1733.48 469.037 1728.86 472.198 1723.36 474.499C1723.33 474.309 1723.32 474.116 1723.28 473.928C1722.5 469.817 1717.75 466.192 1714.51 463.93C1716.58 462.073 1718.45 460.11 1720.01 457.796C1722.02 454.816 1722.44 452.207 1721.79 448.721C1717.01 439.763 1708.89 445.766 1702.53 442.36C1703.36 437.025 1703.3 431.425 1703.53 426.03C1706.86 423.63 1711.26 424.831 1715.14 423.769C1717.71 423.066 1719.66 421.179 1720.87 418.854C1722.05 416.586 1722.49 414.001 1721.67 411.535C1719.97 406.412 1714.3 403.481 1709.89 401.076C1713.08 398.199 1720.49 391.858 1721 387.505C1726.66 389.527 1731.16 391.628 1734.91 396.461C1738.22 395.17 1742.1 393.911 1744.95 391.755C1747.17 390.078 1749.3 387.524 1749.48 384.645C1749.69 381.247 1748.65 378.152 1746.58 375.499Z"/>
	<path fill="#0B3855" transform="scale(0.33724 0.33724)" d="M1749.6 409.498C1754.06 408.14 1759.15 408.535 1763.78 408.51C1765.64 409.245 1767.52 410.008 1769.24 411.055C1774.71 414.39 1778.59 420.112 1780.04 426.331C1781.29 431.704 1780.7 437.673 1777.65 442.357C1774.19 447.667 1769.22 450.016 1763.21 451.217C1762.25 451.832 1761.19 452.026 1760.08 452.233C1755.17 453.151 1750.47 451.662 1746.43 448.838C1740.8 444.906 1736.87 438.405 1735.7 431.639C1733.73 420.207 1744.36 417.384 1749.37 409.863C1749.45 409.744 1749.52 409.62 1749.6 409.498Z"/>
	<path fill="#F8FAF8" transform="scale(0.33724 0.33724)" d="M1353.22 525.499C1366.62 523.921 1381.83 524.903 1394.54 529.692C1398.77 531.285 1404.93 534.221 1406.92 538.555C1406.92 545.403 1404.72 552.971 1400.28 558.241C1400.16 558.111 1400.04 557.979 1399.91 557.853C1392.79 550.796 1379.04 547.56 1369.26 547.597C1363.05 547.621 1355.6 549.008 1351.1 553.663C1343.11 561.923 1350.31 569.245 1350.42 578.247C1350.43 578.439 1350.42 578.632 1350.41 578.824C1363.63 583.517 1386.19 592.98 1397.11 601.338C1406.05 608.177 1412.84 618.341 1414.17 629.673C1415.53 641.28 1411.65 652.93 1404.31 661.926C1394.82 673.553 1381.9 678.054 1367.45 679.501C1364.92 679.989 1362.51 679.951 1359.95 679.784C1348.71 679.054 1329.36 675.907 1321.84 666.908C1315.98 659.892 1324 649.678 1324.54 641.915C1324.56 641.703 1324.56 641.491 1324.57 641.279C1331.17 644.058 1337.22 648.536 1343.94 651.39C1354.03 655.678 1365.86 657.952 1376.32 653.462C1380.88 651.506 1383.65 647.412 1385.46 642.947C1387.08 638.963 1387.47 634.819 1385.67 630.826C1380.14 618.584 1362.55 614.286 1351.03 609.701C1338.52 604.727 1326.92 596.723 1321.6 583.868C1317.39 573.696 1317.71 560.267 1321.97 550.157C1327.65 536.659 1340.52 530.731 1353.22 525.499Z"/>
	<path fill="#F8FAF8" transform="scale(0.33724 0.33724)" d="M1280.54 293.157C1280.64 293.073 1280.73 292.982 1280.84 292.903C1281.01 292.774 1281.2 292.661 1281.38 292.535C1286.21 289.121 1359.77 291.017 1371.64 291.045C1375.35 294.898 1375.22 298.491 1375.14 303.544C1375.08 307.654 1375.05 310.344 1372.25 313.509C1351.62 315.737 1328.77 313.921 1307.92 313.836C1312.69 321.241 1311.7 342.389 1309.92 350.961C1309.64 352.291 1309.27 353.487 1308.65 354.698C1315.37 354.697 1361.26 353.707 1363.53 355.969C1366.11 358.53 1365.97 363.881 1365.78 367.224C1365.59 370.573 1364.98 373.687 1363.3 376.616L1308.3 376.169C1312.26 383.989 1312.22 411.875 1309.31 420.394C1309.03 421.239 1309.06 421.137 1308.74 421.804L1373.53 421.929C1376.92 426.495 1377.05 432.369 1376.25 437.821C1375.91 440.177 1375.19 442.146 1373.93 444.165C1343.17 444.203 1312.03 445.289 1281.31 444.231C1282.16 441.8 1282.6 439.51 1282.73 436.94C1283.33 425.193 1284.11 299.171 1281.94 294.991C1281.56 294.264 1281.09 293.755 1280.54 293.157Z"/>
	<path fill="#F8FAF8" transform="scale(0.33724 0.33724)" d="M1091.92 525.497C1108.99 524.33 1127.89 524.746 1143.78 531.846C1147.71 533.601 1153.38 536.54 1155.03 540.783C1155.5 541.428 1155.88 541.972 1156.17 542.726C1158.84 549.859 1158.1 562.635 1154.84 569.474C1153.84 566.39 1150.92 564.299 1148.41 562.468C1135.43 553.002 1117.18 547.733 1101.21 550.334C1088.79 552.358 1078.1 559.284 1070.89 569.569C1061.86 582.452 1058.9 599.005 1061.75 614.369C1064.2 627.565 1071.48 640.721 1082.85 648.293C1094 655.722 1112.65 656.632 1125.42 653.739C1130.04 652.69 1136.72 650.605 1139.36 646.343C1139.82 646.225 1140.25 646.127 1140.7 645.97C1146.14 644.052 1151.38 640.819 1154.05 635.577C1158.35 643.666 1156.99 657.142 1154.68 665.728C1150.42 672.377 1138.65 675.465 1131.34 677.429C1109.69 683.249 1086.15 681.755 1066.52 670.31C1049.44 660.347 1037.71 643.598 1032.76 624.591Q1032.49 623.572 1032.24 622.546Q1032 621.52 1031.78 620.488Q1031.56 619.456 1031.36 618.42Q1031.17 617.383 1031 616.341Q1030.83 615.3 1030.68 614.255Q1030.54 613.21 1030.42 612.161Q1030.31 611.113 1030.22 610.062Q1030.12 609.011 1030.06 607.958Q1029.99 606.905 1029.95 605.851Q1029.92 604.797 1029.9 603.742Q1029.89 602.687 1029.9 601.632Q1029.92 600.577 1029.95 599.523Q1029.99 598.469 1030.06 597.416Q1030.12 596.363 1030.22 595.312Q1030.31 594.261 1030.42 593.212Q1030.54 592.164 1030.68 591.119Q1030.83 590.073 1031 589.032Q1031.17 587.991 1031.36 586.954Q1031.56 585.917 1031.78 584.885Q1032 583.854 1032.24 582.828Q1032.49 581.802 1032.76 580.783Q1033.03 579.763 1033.33 578.75Q1033.62 577.738 1033.95 576.733Q1034.27 575.728 1034.61 574.732Q1034.96 573.735 1035.33 572.748Q1035.7 571.76 1036.1 570.782Q1036.49 569.804 1036.91 568.836Q1037.33 567.867 1037.77 566.91Q1038.22 565.953 1038.68 565.006Q1039.15 564.06 1039.64 563.126Q1040.13 562.192 1040.64 561.27Q1041.15 560.348 1041.69 559.439C1053.48 539.646 1070.17 530.926 1091.92 525.497Z"/>
	<path fill="#F8FAF8" transform="scale(0.33724 0.33724)" d="M920.37 526.926L1013.05 526.829L1013.08 550.074L948.195 549.996L948.05 588.486Q977.02 587.972 1005.99 588.507L1006 612.169L948.036 612.169L947.984 623.5L947.979 652.93C970.303 653.16 992.654 652.937 1014.98 652.927L1014.99 677.531Q967.564 677.121 920.139 677.706L920.37 526.926Z"/>
	<path fill="#F8FAF8" transform="scale(0.33724 0.33724)" d="M730.959 299.058C730.949 296.396 730.525 293.324 732.156 291.209C744.664 289.452 758.105 290.179 770.732 290.069C788.422 289.915 807.25 288.784 824.806 291.278Q825.051 303.29 824.985 315.304L759.191 315.168L759.118 352.831L818.664 352.831L818.642 375.931L759.11 376.001L759.082 421.927L826.926 421.927L826.95 445L731.112 444.93C731.122 396.495 732.792 347.414 730.959 299.058Z"/>
	<path fill="#F8FAF8" transform="scale(0.33724 0.33724)" d="M1217.5 290.999L1244.04 290.938C1244.42 291.462 1244.77 291.991 1245.04 292.585C1247.06 296.973 1247.13 305.622 1245.52 310.085C1248.09 317.548 1248.11 435.21 1244.83 442.367Q1244.48 443.159 1244.03 443.903C1235.04 444.962 1226.06 444.556 1217.03 444.306C1221.27 437.076 1220.16 387.67 1217.82 378.792C1217.44 377.367 1216.98 376.271 1216.14 375.069Q1181.26 375.657 1146.38 375.309C1150.34 383.885 1148.94 431.572 1145.81 440.852C1145.4 442.073 1144.86 443.06 1144.08 444.074L1118.15 444.074C1123.26 436.672 1121.4 403.67 1119.62 394.503C1119.37 393.203 1118.61 392.118 1117.86 391.061C1118.45 390.476 1118.99 389.918 1119.35 389.153C1122.12 383.277 1121.87 299.539 1118.96 291.07C1127.23 291.018 1136.98 290.094 1145.05 291.995C1155.66 305.093 1139.2 337.752 1148.22 352.811C1170.59 355.149 1194.08 353.557 1216.51 353.06C1219.12 349.994 1219.52 345.749 1219.84 341.87C1220.15 338.14 1220.37 333.164 1217.79 330.165C1217.94 329.815 1218.09 329.465 1218.21 329.105C1220.35 322.909 1220.38 296.896 1217.5 290.999Z"/>
	<path fill="#F8FAF8" transform="scale(0.33724 0.33724)" d="M1220.81 527.498C1229.34 526.559 1237.75 526.76 1246.31 526.955C1247.03 527.575 1247.7 528.217 1248.31 528.948C1251.6 532.909 1300.81 657.11 1305.31 670.066C1306.2 672.639 1306.76 674.697 1306.52 677.452C1296.37 677.943 1286.15 677.614 1275.99 677.51C1276.59 676.169 1276.7 675.055 1276.58 673.586C1275.95 665.576 1270.08 650.303 1263.79 645.302L1246.75 645.173C1232.65 645.12 1218.49 644.824 1204.4 645.367C1203.86 654.983 1198.19 670.4 1191.63 677.525C1181.81 678.292 1171.76 677.694 1161.92 677.51C1162.14 677.306 1162.37 677.108 1162.58 676.897C1167.09 672.441 1221.01 535.241 1220.81 527.498Z"/>
	<path fill="#0B3855" transform="scale(0.33724 0.33724)" d="M1233.11 562.492C1234.72 562.816 1235.56 562.892 1236.52 564.311C1240.86 570.712 1257.44 615.4 1255.96 621.675C1249.05 622.428 1241.71 621.976 1234.75 622L1211.24 621.93Q1211.87 621.413 1212.43 620.821C1218.73 614.241 1233.53 572.209 1233.11 562.492Z"/>
	<path fill="#F8FAF8" transform="scale(0.33724 0.33724)" d="M494.541 526.2C524.46 524.945 554.944 525.72 584.892 526.469C584.977 533.149 585.924 541.33 584.42 547.782C588.342 548.934 605.784 563.36 611.817 566.966C609.348 573.644 607.008 580.223 605.272 587.134C604.734 594.238 603.783 601.617 604.102 608.729C596.484 606.786 586.319 597.518 580.85 591.956L580.915 611.991L523.748 612.836Q523.832 645.003 523.506 677.169L495.307 677.169C494.954 644.151 495.91 611.138 495.939 578.122C495.954 560.94 496.475 543.278 494.541 526.2Z"/>
	<path fill="#244964" transform="scale(0.33724 0.33724)" d="M584.42 547.782C588.342 548.934 605.784 563.36 611.817 566.966C609.348 573.644 607.008 580.223 605.272 587.134C604.734 594.238 603.783 601.617 604.102 608.729C596.484 606.786 586.319 597.518 580.85 591.956L579.729 590.48C566.08 586.372 538.684 588.878 523.547 589.005L523.489 547.993C543.234 547.984 563.135 547.449 582.858 548.303L584.42 547.782Z"/>
	<path fill="#0B3855" transform="scale(0.33724 0.33724)" d="M584.42 547.782C588.342 548.934 605.784 563.36 611.817 566.966C609.348 573.644 607.008 580.223 605.272 587.134C600.902 585.162 576.201 555.578 570.531 549.539C574.65 549.49 578.939 549.726 582.858 548.303L584.42 547.782Z"/>
	<path fill="#F8FAF8" transform="scale(0.33724 0.33724)" d="M898.336 291.028C905.958 290.75 914.318 289.901 921.857 290.987C924.625 291.386 925.735 291.918 927.331 294.109C933.805 318.082 945.097 340.974 954.024 364.129C964.279 390.727 972.994 418.763 984.983 444.542C975.019 444.738 965.04 445.055 955.075 444.839C951.547 433.376 947.399 422.212 943.163 410.997L880.91 411.074C876.896 422.443 873.053 433.911 868.49 445.073L839.559 445.073C853.063 408.573 867.865 372.498 881.813 336.156C886.612 320.914 893.121 306.159 898.336 291.028Z"/>
	<path fill="#0B3855" transform="scale(0.33724 0.33724)" d="M911.474 324.619C914.661 327.547 916.268 333.484 917.749 337.464C920.831 345.745 935.242 384.217 933.176 388.742C927.554 390.389 919.547 389.191 913.649 388.929L889.368 388.929C895.23 367.104 903.729 345.832 911.474 324.619Z"/>
	<path fill="#F8FAF8" transform="scale(0.33724 0.33724)" d="M790.046 526.591C814.316 525.688 845.591 522.674 868.273 532.116C877.585 535.992 884.909 542.868 888.695 552.289C893.057 563.145 892.423 576.468 887.744 587.112C881.541 601.224 870.698 607.597 857.052 612.959C871.914 632.831 886.345 655.759 897.85 677.753C888.096 679.045 878.016 678.157 868.21 677.765C854.444 663.015 841.893 636.093 831.708 617.932L814.984 617.837L814.982 677.7L786.972 677.702C786.986 660.14 785.38 532.729 787.732 527.235L790.046 526.591Z"/>
	<path fill="#0B3855" transform="scale(0.33724 0.33724)" d="M814.98 549.008C832.933 548.629 847.215 546.047 861.414 559.285C862.92 566.579 863.053 573.491 862.962 580.899L857.862 589.029C844.596 597.065 829.741 595.602 814.968 595.043L814.98 549.008Z"/>
	<path fill="#F8FAF8" transform="scale(0.33724 0.33724)" d="M1412.32 290.499C1434.1 288.587 1469 288.329 1488.83 297.644C1498.75 302.309 1506.92 310.088 1510.6 320.574C1514.61 331.999 1513.34 345.101 1507.93 355.851C1501.55 368.515 1490.63 375.59 1477.61 379.97C1479.01 380.968 1480.25 382.057 1481.36 383.363C1487.85 390.991 1520.72 436.548 1519.98 444.304L1490.18 444.298C1489.08 441.353 1486.76 439.561 1484.49 437.507C1484.45 437.25 1484.43 436.992 1484.38 436.737C1483.7 432.782 1450.48 384.403 1446.08 381.51L1430.05 381.51C1430.97 382.641 1431.49 383.577 1431.81 385.016C1434.17 395.746 1434.39 435.55 1429.08 444.073L1402.4 444.073C1402.51 443.878 1402.63 443.687 1402.74 443.487C1406.51 436.195 1406.4 302.491 1402.58 291.468L1412.32 290.499Z"/>
	<path fill="#0B3855" transform="scale(0.33724 0.33724)" d="M1429.32 314.497C1439.54 312.697 1455.07 312.356 1465.12 314.691C1471.45 316.163 1477.59 319.54 1480.97 325.27C1484.16 330.673 1484.99 338.204 1483.29 344.226C1482.04 348.622 1479.71 352.263 1475.68 354.5C1475.24 355.375 1474.74 356.104 1474.01 356.776C1466.04 364.12 1440.7 361.145 1430.34 360.973C1430.76 360.048 1431.07 359.128 1431.32 358.14C1433.74 348.595 1434.46 323.107 1429.32 314.497Z"/>
	<path fill="#F8FAF8" transform="scale(0.33724 0.33724)" d="M1709.02 529.499C1709.29 529.485 1709.57 529.454 1709.84 529.457C1714.67 529.52 1780.79 584.248 1785.85 590.995C1787.27 592.892 1787.06 593.634 1786.63 595.784C1785.17 597.197 1783.77 597.639 1781.79 597.836C1773.35 598.675 1763.82 597.42 1755.3 597.164Q1734.65 596.496 1714 597.332C1714.71 598.102 1715.36 598.927 1715.82 599.874C1719.64 607.734 1723.8 641.41 1720.76 649.274C1729.25 652.169 1776.88 677.324 1781.43 683.32Q1783.93 682.651 1786.34 681.701C1793.18 678.953 1814.84 669.715 1817.89 662.538C1819.13 660.977 1819.98 659.525 1820.59 657.615C1822.8 650.708 1826 634.568 1822.7 628.022C1818.82 626.643 1764.06 627.012 1755.15 626.859C1757.02 626.272 1758.93 625.65 1760.66 624.727C1768.33 620.639 1821.99 575.801 1823.58 570.415C1834.47 574.257 1862.46 599.064 1873.2 607.927C1877.32 611.326 1890.91 621.047 1891.37 625.796C1883.43 632.977 1845.82 624.046 1832.3 628.265C1827.16 636.001 1836.01 652.941 1833.55 662.054C1846.53 668.629 1864.07 677.817 1876.08 685.729C1879.47 687.958 1883.44 690.737 1884.32 694.929L1883.2 696.603C1876.43 699.379 1871.6 696.755 1865.25 694.248C1857.02 687.574 1842.74 683.662 1832.51 681.195C1832.71 681.653 1832.9 682.114 1833.07 682.582C1836.08 690.641 1839.92 733.106 1836.5 740.282C1830.03 742.056 1821.34 741.038 1814.57 741C1815.53 739.854 1816.34 738.444 1816.7 736.981C1818.69 728.853 1823.34 688.936 1819.24 682.466C1814.15 685.077 1773.9 700.42 1770.99 699.917C1770.34 699.803 1769.93 691.413 1769.01 689.805C1768.94 689.68 1768.86 689.561 1768.78 689.439C1760.51 683.64 1729.65 674.763 1718.63 673.296C1719.36 674.399 1719.93 675.575 1720.21 676.876C1722.67 688.494 1727.03 737.693 1721.52 745.932L1699.47 745.995C1700.56 743.843 1701.19 741.389 1701.6 739.022C1702.87 731.798 1705.53 677.928 1702.99 674.387C1694.36 674.165 1659.82 689.908 1649.61 694.182C1647.02 695.266 1645.15 695.584 1642.56 694.56C1634.37 675.817 1695.38 663.657 1699.92 648.865C1699.97 648.733 1699.99 648.596 1700.03 648.461L1700.31 648.038C1701.23 646.673 1701.92 645.326 1702.37 643.733C1704.84 634.836 1709.6 605.231 1705.35 597.706Q1665.62 597.582 1625.9 597.013C1635.4 593.36 1704.55 537.974 1709.02 529.499Z"/>
	<path fill="#0B3855" transform="scale(0.33724 0.33724)" d="M1708.92 655.498C1710.38 655.463 1711.87 655.57 1713.33 655.626C1715.57 657.035 1716.33 657.363 1717.46 659.855C1716.35 662.774 1715.81 662.954 1713.25 664.503L1711.23 664.775L1709.21 663.193C1708.12 659.921 1708.14 658.859 1708.92 655.498Z"/>
	<path fill="#0B3855" transform="scale(0.33724 0.33724)" d="M1819.69 581.498C1821.09 581.511 1821.88 581.775 1823.14 582.296C1823.51 583.378 1823.83 584.478 1824.02 585.607C1825.35 593.682 1825.92 614.6 1821.02 621.165L1778.92 621.165C1778.37 620.974 1777.78 620.366 1777.33 619.998C1781.28 609.464 1816.31 592.587 1819.69 581.498Z"/>
	<path fill="#0B3855" transform="scale(0.33724 0.33724)" d="M1827.99 582.498C1829.05 582.319 1829.99 582.308 1831.06 582.53C1838.48 584.071 1872.59 613.364 1877.14 620.29L1875.6 621.81L1827.23 621.293C1827.66 620.63 1828.02 619.939 1828.33 619.215C1831.79 611.207 1831.24 590.293 1827.99 582.498Z"/>
	<path fill="#0B3855" transform="scale(0.33724 0.33724)" d="M1703.86 541.498C1705.36 541.298 1706.33 541.453 1707.79 541.768C1708.27 542.61 1708.69 543.49 1708.88 544.448C1710.87 554.352 1711.14 582.832 1706.07 591L1652.75 591L1649.9 590.461C1650.58 582.88 1700.08 552.482 1703.86 541.498Z"/>
	<path fill="#0B3855" transform="scale(0.33724 0.33724)" d="M1713.21 541.497C1714.32 541.499 1715.87 541.317 1716.94 541.503C1723.39 542.629 1767.78 582.568 1774.29 588.883L1774.15 590.014L1771.22 591.091C1752.12 593.093 1732.15 591.664 1712.96 591.153C1713.77 589.382 1714.34 587.579 1714.67 585.661C1716.12 577.398 1717.65 547.652 1713.21 541.497Z"/>
	<path fill="#F8FAF8" transform="scale(0.33724 0.33724)" d="M659.102 526.828C680.875 520.949 704.883 523 724.62 534.384C741.43 544.08 752.897 559.756 757.879 578.434C763.588 599.841 761.191 624.458 750.012 643.758Q749.13 645.269 748.174 646.734Q747.218 648.199 746.19 649.615Q745.163 651.031 744.067 652.395Q742.971 653.758 741.809 655.066Q740.647 656.374 739.422 657.623Q738.197 658.872 736.911 660.058Q735.626 661.245 734.284 662.367Q732.941 663.489 731.545 664.543Q730.149 665.597 728.702 666.581Q727.255 667.564 725.762 668.476Q724.268 669.387 722.732 670.223Q721.195 671.059 719.619 671.818Q718.043 672.577 716.431 673.258Q714.819 673.938 713.176 674.538Q711.533 675.138 709.862 675.656Q708.191 676.174 706.496 676.609C684.998 682.314 658.733 679.976 639.351 668.701C622.496 658.897 611.662 642.632 606.811 623.956C605.525 619.004 604.802 613.793 604.102 608.729C603.783 601.617 604.734 594.238 605.272 587.134C607.008 580.223 609.348 573.644 611.817 566.966C623.437 547.694 636.6 532.794 659.102 526.828Z"/>
	<path fill="#0B3855" transform="scale(0.33724 0.33724)" d="M678.221 547.263C687.579 546.758 697.797 549.088 705.937 553.651C717.459 560.111 725.206 571.3 728.792 583.869C733.276 599.585 732.418 618.053 724.191 632.391C716.035 646.606 704.014 652.056 688.95 656.107C676.571 656.206 664.612 654.126 654.194 646.985C642.99 639.306 636.29 627.296 633.861 614.122C630.964 598.411 633.323 580.49 642.623 567.245C651.426 554.708 663.769 549.909 678.221 547.263Z"/>
	<path fill="#3F9CBC" transform="scale(0.33724 0.33724)" d="M1679.07 324.738C1681.24 321.228 1681.83 316.388 1682.85 312.416C1686.76 297.227 1693.52 285.773 1706.95 277.1C1722 267.382 1741.07 264.337 1758.51 268.08C1769.7 270.481 1784.45 276.717 1792.19 285.295C1795.6 289.073 1797.99 293.932 1800.75 298.195C1802.29 300.578 1804.34 303.749 1806.89 305.199C1808.17 305.925 1829.97 302.859 1837.85 304.642C1848.22 306.991 1856.34 312.671 1861.94 321.726C1865.22 327.025 1869.98 337.788 1868.42 344.247C1872.93 345.499 1877.76 346.636 1881.96 348.74C1889.1 352.324 1895.29 358.301 1897.76 366.036C1900.47 374.509 1898.83 384.667 1894.63 392.379C1887.99 404.571 1875.39 411.57 1862.46 415.269C1845.48 420.123 1820.84 421.989 1804.89 413.085C1805.69 408.454 1809.9 404.753 1809.54 400.208C1809.6 396.452 1807.06 393.571 1804.59 390.987C1800.78 387.005 1795.03 381.436 1790.1 379.091C1785.44 383.981 1780.79 387.059 1774.58 389.695C1775.72 385.323 1775.38 379.544 1773.03 375.583C1770.89 371.958 1767.19 369.774 1763.17 368.862C1758.46 367.797 1750.63 368.048 1746.6 371.049C1740.33 375.726 1745.86 384.064 1738.14 389.377C1732.96 388.934 1727 383.32 1721.56 381.737C1720.22 384.091 1707.75 398.775 1705.23 401.462C1707.46 403.369 1711.45 406.556 1711.46 409.786C1711.46 410.09 1711.42 410.394 1711.41 410.698C1709.66 414.07 1708.08 416.549 1704.17 417.686C1703.71 417.82 1703.24 417.924 1702.77 418.028C1697.18 421.537 1678.67 419.256 1671.69 418.313C1658.04 416.468 1644.29 410.146 1635.94 398.905C1628.5 388.892 1626.17 375.885 1627.99 363.683C1629.77 351.684 1635.9 340.641 1645.78 333.459C1654.94 326.801 1667.81 322.859 1679.07 324.738Z"/>
	<path fill="#F8FAF8" transform="scale(0.33724 0.33724)" d="M1679.07 324.738C1681.24 321.228 1681.83 316.388 1682.85 312.416C1686.76 297.227 1693.52 285.773 1706.95 277.1C1722 267.382 1741.07 264.337 1758.51 268.08C1769.7 270.481 1784.45 276.717 1792.19 285.295C1795.6 289.073 1797.99 293.932 1800.75 298.195C1802.29 300.578 1804.34 303.749 1806.89 305.199C1808.17 305.925 1829.97 302.859 1837.85 304.642C1848.22 306.991 1856.34 312.671 1861.94 321.726C1865.22 327.025 1869.98 337.788 1868.42 344.247C1872.93 345.499 1877.76 346.636 1881.96 348.74C1889.1 352.324 1895.29 358.301 1897.76 366.036C1900.47 374.509 1898.83 384.667 1894.63 392.379C1887.99 404.571 1875.39 411.57 1862.46 415.269C1845.48 420.123 1820.84 421.989 1804.89 413.085C1829.47 405.623 1869.82 421.266 1886.74 389.304C1889.98 383.199 1890.48 376.829 1888.43 370.228C1886.64 364.448 1882.73 358.182 1877.17 355.382C1867.65 350.585 1855.61 357.624 1845.99 359.356C1851.88 355.282 1857.04 350.075 1858.34 342.742C1859.41 336.638 1857.37 330.516 1853.8 325.573C1848.46 318.17 1839.78 313.25 1830.78 312.002C1824.2 311.087 1814.78 312.208 1809.4 316.459C1805.33 319.67 1802.53 324.414 1798.4 327.725C1801.21 322.487 1800.31 314.732 1798.6 309.222C1794.81 297 1782.8 286.728 1771.62 281.097Q1770.32 280.427 1768.98 279.823Q1767.65 279.219 1766.29 278.683Q1764.93 278.146 1763.54 277.678Q1762.15 277.21 1760.74 276.812Q1759.33 276.413 1757.91 276.086Q1756.48 275.758 1755.04 275.502Q1753.59 275.247 1752.14 275.063Q1750.69 274.879 1749.23 274.768Q1747.77 274.657 1746.31 274.619Q1744.84 274.581 1743.38 274.616Q1741.91 274.651 1740.45 274.759Q1738.99 274.867 1737.54 275.048Q1736.09 275.229 1734.65 275.482Q1733.2 275.735 1731.78 276.059Q1730.35 276.384 1728.94 276.779Q1727.53 277.175 1726.14 277.64C1712.87 282.146 1701.75 291.12 1695.44 303.772C1687.98 318.727 1695.07 330.776 1691.87 339.436C1687.33 335.3 1679.18 333.197 1673.12 333.463C1662.62 333.924 1652.21 340.137 1645.32 347.816C1638.78 355.09 1634.83 364.44 1635.37 374.302C1635.92 384.266 1640.9 393.174 1648.41 399.607C1653.46 403.942 1661.55 408.956 1668.08 410.661C1675.49 412.593 1701.59 410.85 1704.6 415.696L1702.77 418.028C1697.18 421.537 1678.67 419.256 1671.69 418.313C1658.04 416.468 1644.29 410.146 1635.94 398.905C1628.5 388.892 1626.17 375.885 1627.99 363.683C1629.77 351.684 1635.9 340.641 1645.78 333.459C1654.94 326.801 1667.81 322.859 1679.07 324.738Z"/>
	<path fill="#244964" transform="scale(0.33724 0.33724)" d="M1522.69 818.747L698.264 819.08L384.535 819.125L281.505 819.191C262.389 819.203 243.121 819.694 224.019 818.959C186.725 817.525 153.372 805.249 127.748 777.384C113.951 762.381 102.081 742.19 98.0092 722.053C93.5633 700.063 95.4386 676.697 95.4857 654.385L95.5606 562.809L95.0269 401.405C95.0211 372.907 94.4466 344.155 95.7761 315.692Q95.8401 314.077 95.9441 312.463Q96.048 310.85 96.1919 309.239Q96.3358 307.629 96.5195 306.023Q96.7032 304.417 96.9266 302.815Q97.15 301.214 97.413 299.619Q97.676 298.024 97.9784 296.435Q98.2808 294.847 98.6224 293.267Q98.964 291.687 99.3446 290.115Q99.7253 288.544 100.145 286.983Q100.564 285.421 101.022 283.871Q101.48 282.32 101.976 280.781Q102.472 279.243 103.006 277.717Q103.541 276.191 104.112 274.678Q104.684 273.166 105.293 271.669Q105.902 270.171 106.548 268.689Q107.194 267.207 107.876 265.741Q108.559 264.275 109.277 262.827Q109.995 261.379 110.75 259.948Q111.504 258.518 112.293 257.107Q113.082 255.696 113.906 254.305Q114.73 252.914 115.588 251.544Q116.446 250.174 117.338 248.825Q118.23 247.477 119.155 246.151Q120.08 244.825 121.037 243.522Q121.995 242.219 122.984 240.941Q123.973 239.662 124.994 238.408Q126.015 237.154 127.066 235.926Q128.118 234.698 129.199 233.496Q130.281 232.295 131.392 231.12Q132.503 229.946 133.643 228.799Q134.782 227.652 135.95 226.534Q137.118 225.416 138.313 224.327C157.194 207.214 181.662 195.185 207.089 192.208C227.087 189.867 247.768 190.915 267.888 190.942L364.262 191.009L708.919 191.002L1225.25 190.957L1393.7 190.858C1424.26 190.831 1455.14 189.671 1485.65 191.164C1485.51 191.215 1485.38 191.269 1485.24 191.317C1482.88 192.163 1480.52 191.867 1478.17 192.644C1467.22 196.256 1453.91 204.69 1443.32 209.988Q1405.23 229.04 1366.88 247.569C1354.46 253.556 1340.25 262.115 1326.91 265.26C1326.72 265.182 1326.53 265.107 1326.34 265.025C1315.18 260.154 1297 245.934 1285.98 238.802C1264.97 225.195 1242.58 212.633 1222.14 198.271C1219.62 196.495 1217.36 194.206 1215.35 191.88C1195.1 194.816 1166.18 211.768 1146.88 220.643L1057.6 261.581C1037.43 270.912 1015.81 278.849 996.483 289.74C1004.73 289.75 1015.75 288.499 1023.55 291L976.812 291.003C976.866 299.003 977.051 306.981 976.01 314.932C988.475 314.845 1014.09 312.819 1024.78 315.164C1028.4 323.345 1028.65 380.104 1026.93 391.246C1025.53 383.536 1027.33 375.13 1024.6 367.698L1024.32 366.006C1017.23 361.887 1010.5 355.441 1003.95 350.361C993.388 342.161 933.316 294.851 927.331 294.109C925.735 291.918 924.625 291.386 921.857 290.987C914.318 289.901 905.958 290.75 898.336 291.028C893.121 306.159 886.612 320.914 881.813 336.156C865.66 321.606 842.608 304.123 824.806 291.278C807.25 288.784 788.422 289.915 770.732 290.069C758.105 290.179 744.664 289.452 732.156 291.209C730.525 293.324 730.949 296.396 730.959 299.058C729.288 300.519 728.226 300.746 726.033 300.844C721.691 299.378 718.402 295.126 715.28 291.9Q701.661 338.11 686.39 383.8C679.701 404.097 672.352 424.401 666.707 445.008L640.654 444.936C628.706 409.003 617.311 372.682 604.229 337.154C593.861 362.8 586.251 390.116 577.251 416.308C573.892 426.084 570.882 436.428 566.432 445.764C557.297 447.102 548.586 446.762 539.416 446.036Q563.988 462.71 588.131 480L1230.26 480.473L1438.99 480.517C1467.94 480.501 1497.05 479.246 1525.99 479.939C1530.95 480.057 1538.26 480.005 1542.37 482.876L1542.97 484.772C1541.12 487.641 1538.12 488.722 1534.9 489.404C1528.07 490.851 1496.53 489.052 1487.02 489.061L1326.11 489.104L843.871 489.101L687.517 489.099C658.015 489.091 628.259 488.176 598.793 489.558C618.35 502.764 638.793 514.819 659.102 526.828C636.6 532.794 623.437 547.694 611.817 566.966C605.784 563.36 588.342 548.934 584.42 547.782C585.924 541.33 584.977 533.149 584.892 526.469C554.944 525.72 524.46 524.945 494.541 526.2L493.344 526.942C490.53 577.649 492.183 628.854 492.775 679.632C554.311 727.291 619.059 770.601 680.944 817.715L1249.82 817.714L1437.59 817.701C1464.73 817.696 1492 816.973 1519.12 817.449C1520.59 817.475 1521.35 817.633 1522.52 818.57C1522.59 818.621 1522.64 818.688 1522.69 818.747Z"/>
	<path fill="#0B3855" transform="scale(0.33724 0.33724)" d="M346.2 434.327C353.301 438.208 358.825 441.884 367.18 441.564L368.176 440.58L369.043 441.341C369.037 443.123 369.209 445.219 368.397 446.85C367.758 448.134 366.685 448.166 365.4 448.643C359.809 447.971 355.305 445.435 350.982 441.882C348.39 439.752 346.566 437.765 346.2 434.327Z"/>
	<path fill="#0B3855" transform="scale(0.33724 0.33724)" d="M300.804 452.013C306.341 458.744 307.758 471.387 306.982 479.886C306.753 482.391 306.406 484.456 304.777 486.476C302.591 487.017 301.839 486.975 299.762 485.783C299.285 485.51 299.161 485.368 298.799 485.035C303.144 473.768 301.89 463.752 300.804 452.013Z"/>
	<path fill="#0B3855" transform="scale(0.33724 0.33724)" d="M491.371 489.979C498.897 488.779 507.423 489.518 515.074 489.52C518.415 491.208 521.534 492.774 524.388 495.225L524.396 497.145C521.545 498.577 518.78 499.921 515.559 500.217C506.11 501.088 498.297 495.678 491.371 489.979Z"/>
	<path fill="#0B3855" transform="scale(0.33724 0.33724)" d="M186.734 447.365C201.265 442.523 211.491 433.354 222.576 423.184C221.916 429.456 219.135 432.511 214.306 436.423C209.964 439.942 205.187 443.074 200.612 446.288L202.761 444.751L202.698 445.602L212.804 440.99C208.384 446.34 200.86 454.026 193.467 454.264C192.167 454.306 191.03 453.819 189.899 453.238C188.263 451.294 187.178 449.968 186.734 447.365Z"/>
	<path fill="#0B3855" transform="scale(0.33724 0.33724)" d="M245.543 436.385L246.828 436.954C248.839 443.654 242.833 455.521 239.632 461.506C239.117 462.469 238.56 463.281 237.888 464.137C234.751 470.295 232.003 473.571 225.317 475.828C222.982 476.617 220.846 476.473 218.434 476.253L216.913 474.854C217.071 473.128 217.084 471.937 218.251 470.543L219.919 470.546C231.885 460.669 238.591 450.179 245.543 436.385Z"/>
	<path fill="#0B3855" transform="scale(0.33724 0.33724)" d="M272.757 444.971C272.84 444.965 272.924 444.941 273.006 444.953C276.431 445.421 278.023 445.673 281.385 444.511L281.433 450.208C280.194 450.437 277.027 449.85 276.913 450.019C270.207 459.93 277.043 485.775 261.468 489.929C260.489 490.19 259.566 490.194 258.569 490.099C256.786 488.569 256.745 488.368 256.216 486.064C265.439 473.154 269.133 460.213 272.757 444.971Z"/>
	<path fill="#0B3855" transform="scale(0.33724 0.33724)" d="M352.921 385.163C352.028 384.838 351.665 384.333 351.013 383.664C353.067 381.488 355.026 382.88 357.742 382.018C356.605 378.173 353.128 376.556 350.884 373.178C350.253 370.273 350.767 368.872 351.958 366.309C353.155 370.313 353.963 373.137 357.92 375.187C367.408 380.102 383.43 375.584 393.101 372.349Q395.686 371.489 398.167 370.364C398.142 373.828 398.267 376.731 395.544 379.31C388.122 386.34 374.822 379.295 372.826 392.772C366.457 389.345 359.891 387.015 352.921 385.163Z"/>
	<path fill="#FEC053" transform="scale(0.33724 0.33724)" d="M340.801 408.774C354.091 417.222 362.027 426.597 367.18 441.564C358.825 441.884 353.301 438.208 346.2 434.327Q338.471 427.922 330.836 421.405L340.801 408.774Z"/>
	<path fill="#FEC053" transform="scale(0.33724 0.33724)" d="M320.238 428.931C320.557 429.025 320.521 429.005 320.935 429.206C327.702 432.496 333.345 445.828 335.636 452.832C337.102 457.315 338.593 461.612 336.389 465.985C333.669 466.604 332.905 465.883 330.468 464.727C320.759 456.18 313.944 447.876 307.823 436.455C312.146 434.265 316.17 431.554 320.238 428.931Z"/>
	<path fill="#FEC053" transform="scale(0.33724 0.33724)" d="M352.921 385.163C359.891 387.015 366.457 389.345 372.826 392.772C376.91 396.313 381.54 399.158 385.3 403.085C387.241 405.111 388.609 407.024 388.544 409.847L386.393 411.003C372.983 411.398 358.265 405.065 347.204 397.877C348.627 393.933 349.917 388.133 352.921 385.163Z"/>
	<path fill="#FEC053" transform="scale(0.33724 0.33724)" d="M351.958 366.309C352.507 364.163 352.496 362.566 354.488 361.251C360.779 357.098 372.81 359.386 379.765 361.173C385.719 362.702 394.394 365.324 398.167 370.364Q395.686 371.489 393.101 372.349C383.43 375.584 367.408 380.102 357.92 375.187C353.963 373.137 353.155 370.313 351.958 366.309Z"/>
	<path fill="#FEC053" transform="scale(0.33724 0.33724)" d="M199.227 385.862C200.676 385.927 202.114 386.708 203.217 387.624C204.949 389.062 205.918 391.062 206.069 393.297C206.273 396.301 204.708 398.978 202.868 401.217C196.088 409.469 182.785 410.644 172.788 411.551C170.813 411.658 169.186 411.83 167.375 410.899C166.013 410.2 166.169 409.908 165.722 408.444C170.804 397.965 189.046 390.107 199.227 385.862Z"/>
	<path fill="#FEC053" transform="scale(0.33724 0.33724)" d="M281.385 444.511C286.534 441.779 291.58 441.083 297.346 440.912C298.34 444.399 299.079 448.858 300.804 452.013C301.89 463.752 303.144 473.768 298.799 485.035C289.506 474.572 285.175 463.43 281.433 450.208L281.385 444.511Z"/>
	<path fill="#FEC053" transform="scale(0.33724 0.33724)" d="M379.528 326.339C382.721 326.005 386.191 325.177 389.11 326.841C389.404 327.694 389.954 328.515 389.558 329.359C385.216 338.595 369.632 346.074 360.333 349.274C356.992 349.713 354.82 349.754 351.592 348.673C349.836 346.951 349.256 346.128 348.658 343.733C348.111 341.542 348.552 339.27 349.828 337.399C355.183 329.552 370.776 327.571 379.528 326.339Z"/>
	<path fill="#FEC053" transform="scale(0.33724 0.33724)" d="M163.392 327.037C173.905 326.793 186.328 327.445 196.263 331.158C200.201 332.63 204.148 335.179 205.873 339.162C207.142 342.092 204.961 346.075 203.849 348.844C203.543 349.279 203.467 349.439 202.995 349.812C200.962 351.421 198.562 351.452 196.102 351.079C183.809 349.214 170.614 336.613 163.392 327.037Z"/>
	<path fill="#FEC053" transform="scale(0.33724 0.33724)" d="M183.721 291.226C190.302 292.486 196.181 295.183 201.997 298.428C208.763 302.202 217.256 307.591 219.303 315.569C219.997 318.271 217.823 321.023 216.451 323.224C215.459 324.351 214.135 325.175 212.925 326.053C210.553 326.472 208.723 326.461 206.525 325.353C195.329 319.714 187.649 302.542 183.721 291.226Z"/>
	<path fill="#FEC053" transform="scale(0.33724 0.33724)" d="M256.216 486.064C255.008 484.316 254.205 482.344 253.67 480.292C251.338 471.351 249.097 452.096 254.161 444.112C255.385 442.182 256.909 440.9 259.199 440.519C262.905 439.902 269.724 442.922 272.757 444.971C269.133 460.213 265.439 473.154 256.216 486.064Z"/>
	<path fill="#FEC053" transform="scale(0.33724 0.33724)" d="M230.897 428.555C235.848 430.957 241.06 433.171 245.543 436.385C238.591 450.179 231.885 460.669 219.919 470.546L218.251 470.543C216.875 469.82 216.3 469.273 215.928 467.689C213.229 456.205 224.856 437.746 230.897 428.555Z"/>
	<path fill="#FEC053" transform="scale(0.33724 0.33724)" d="M214.782 264.092C216.997 264.811 218.954 265.7 220.802 267.143C227.38 272.283 242.993 288.436 243.224 297.122C243.292 299.651 242.264 300.264 240.556 301.826C238.475 303.044 235.459 305.098 233.049 305.372C230.857 305.621 228.455 304.451 226.795 303.1C217.251 295.332 215.936 275.428 214.782 264.092Z"/>
	<path fill="#FEC053" transform="scale(0.33724 0.33724)" d="M185.278 360.408C185.784 360.309 185.925 360.266 186.509 360.247C190.814 360.106 197.569 360.03 200.592 363.458C201.967 365.016 202.593 367.336 202.3 369.384C201.891 372.24 199.82 374.651 197.461 376.168C191.02 380.31 183.288 378.952 176.249 377.4C171.144 376.848 163.018 376.334 159.585 372.063C158.635 370.883 158.961 370.318 159.099 368.887C164.755 362.259 177.094 361.388 185.278 360.408Z"/>
	<path fill="#FEC053" transform="scale(0.33724 0.33724)" d="M298.09 248.608C298.509 248.964 298.696 249.088 299.031 249.483C303.953 255.299 303.881 268.558 303.02 275.956C302.35 281.713 300.554 288.752 295.683 292.433C293.121 294.369 290.176 293.683 287.222 293.261C286.588 293.068 286.075 292.912 285.535 292.515C283.776 291.221 282.796 289.269 282.398 287.165C280.119 275.125 291.402 257.993 298.09 248.608Z"/>
	<path fill="#FEC053" transform="scale(0.33724 0.33724)" d="M337.981 264.844C338.226 265.021 338.498 265.165 338.715 265.374C340.414 267.01 340.137 270.098 339.752 272.194C337.949 281.989 332.26 298.542 323.713 304.126C320.733 306.073 318.446 305.107 315.274 304.446C313.899 303.427 312.144 302.258 311.222 300.792C310.042 298.917 310.166 296.246 310.654 294.159C313.463 282.143 328.166 271.223 337.981 264.844Z"/>
	<path fill="#FEC053" transform="scale(0.33724 0.33724)" d="M366.701 291.01L368.999 292.026L369.915 294.395C368.27 304.035 358.039 315.561 350.405 321.379C347.104 323.895 344.072 325.948 339.783 325.337C337.913 323.572 335.436 321.554 334.318 319.206C333.274 317.012 333.508 314.474 334.426 312.285C338.793 301.871 357.023 295.169 366.701 291.01Z"/>
	<path fill="#FEC053" transform="scale(0.33724 0.33724)" d="M253.82 249.239C254.597 249.674 255.323 250.159 255.991 250.752C263.585 257.487 269.955 272.822 270.652 282.742C270.976 287.353 270.26 289.963 267.215 293.434C264.229 293.897 261.572 294.302 258.55 293.89C255.972 292.474 254.27 291.083 252.816 288.493C246.836 277.844 250.535 260.352 253.82 249.239Z"/>
	<path fill="#FEC053" transform="scale(0.33724 0.33724)" d="M186.734 447.365C186.028 445.898 186.004 444.437 186.138 442.829C187.27 429.283 202.173 415.583 211.906 407.296C216.429 412.125 220.965 416.542 222.576 423.184C211.491 433.354 201.265 442.523 186.734 447.365Z"/>
	<path fill="#F8FAF8" transform="scale(0.33724 0.33724)" d="M281.195 686.779C282.63 687.189 283.499 688.049 284.388 689.231C293.291 701.079 297.405 721.74 295.229 736.291C293.734 746.282 289.002 756.615 280.661 762.689C273.213 768.114 265.65 768.477 256.844 767.122Q255.012 766.229 253.296 765.129Q251.58 764.029 250.004 762.737Q248.427 761.446 247.011 759.98Q245.595 758.514 244.358 756.894C240.012 751.142 238.71 744.327 239.745 737.262C242.99 715.114 264.412 699.038 281.195 686.779Z"/>
	<path fill="#0B3855" transform="scale(0.33724 0.33724)" d="M279.604 694.092C280.275 694.594 280.813 695.184 281.343 695.83C288.845 704.96 290.959 722.074 289.755 733.6C288.861 742.145 285.51 750.768 278.62 756.238C271.824 761.633 265.441 761.398 257.301 760.458C254.461 758.519 251.874 756.592 249.769 753.836C246.018 748.925 244.678 743.122 245.591 737.035C248.325 718.807 265.617 704.278 279.604 694.092Z"/>
	<path fill="#FEC053" transform="scale(0.33724 0.33724)" d="M270.959 301.312C285.818 299.28 301.199 303.468 313.708 311.562Q315.078 312.463 316.403 313.43Q317.727 314.397 319.003 315.427Q320.278 316.458 321.501 317.55Q322.725 318.642 323.893 319.793Q325.061 320.943 326.172 322.15Q327.282 323.357 328.332 324.616Q329.382 325.876 330.369 327.185Q331.356 328.495 332.278 329.851Q333.199 331.208 334.053 332.607Q334.907 334.007 335.691 335.448Q336.476 336.888 337.188 338.365Q337.901 339.841 338.541 341.351Q339.18 342.861 339.745 344.401Q340.309 345.941 340.798 347.506Q341.286 349.071 341.697 350.659Q342.108 352.246 342.441 353.852Q342.773 355.454 343.024 357.07Q343.276 358.686 343.448 360.313Q343.62 361.94 343.711 363.573Q343.802 365.206 343.812 366.842Q343.822 368.478 343.751 370.112Q343.68 371.746 343.528 373.375Q343.377 375.004 343.144 376.623Q342.912 378.242 342.601 379.848Q342.289 381.454 341.898 383.042Q341.507 384.63 341.038 386.198Q340.569 387.765 340.022 389.307Q339.477 390.849 338.855 392.362Q338.233 393.875 337.537 395.355Q336.842 396.836 336.074 398.28Q335.305 399.724 334.467 401.128Q333.628 402.533 332.721 403.894C321.561 420.735 305.206 428.84 285.869 432.724C268.648 434.974 251.531 430.921 237.348 420.723Q236.074 419.788 234.847 418.791Q233.62 417.795 232.443 416.741Q231.266 415.686 230.141 414.575Q229.017 413.465 227.948 412.301Q226.879 411.137 225.867 409.922Q224.856 408.708 223.905 407.446Q222.953 406.183 222.065 404.877Q221.176 403.57 220.352 402.221Q219.527 400.873 218.77 399.486Q218.012 398.099 217.323 396.676Q216.633 395.254 216.014 393.8Q215.394 392.346 214.846 390.864Q214.298 389.382 213.822 387.874Q213.347 386.367 212.945 384.839Q212.543 383.31 212.216 381.764Q211.889 380.217 211.638 378.657C208.82 361.381 213.527 343.007 223.759 328.877C235.334 312.892 251.774 304.402 270.959 301.312Z"/>
	<path fill="#F8FAF8" transform="scale(0.33724 0.33724)" d="M594.814 291.494C598.648 290.855 602.543 290.123 606.423 289.857C611.306 289.522 614.588 289.603 618.316 292.89C621.873 292.371 624.376 294.637 627.184 296.731C636.297 303.529 663.582 333.303 673.29 331.75C673.823 331.664 673.811 331.644 674.387 331.471C675.667 323.705 684.701 300.191 687.658 290.419C696.127 289.983 707.511 288.21 715.28 291.9Q701.661 338.11 686.39 383.8C679.701 404.097 672.352 424.401 666.707 445.008L640.654 444.936C628.706 409.003 617.311 372.682 604.229 337.154C593.861 362.8 586.251 390.116 577.251 416.308C573.892 426.084 570.882 436.428 566.432 445.764C557.961 443.78 548.149 444.775 539.472 444.989C525.591 393.323 507.93 341.926 489.826 291.58C498.476 290.67 511.559 288.883 519.834 291.403C521.591 291.938 521.63 292.736 522.471 294.28L524.041 293.766C537.497 302.784 566.496 330.964 579.427 334.193C586.616 320.576 586.518 304.911 594.814 291.494Z"/>
	<path fill="#0B3855" transform="scale(0.33724 0.33724)" d="M618.316 292.89C621.873 292.371 624.376 294.637 627.184 296.731C636.297 303.529 663.582 333.303 673.29 331.75C673.823 331.664 673.811 331.644 674.387 331.471C667.588 355.709 660.262 380.052 652.086 403.863C641.545 366.728 629.563 329.827 618.316 292.89Z"/>
	<path fill="#0B3855" transform="scale(0.33724 0.33724)" d="M522.471 294.28L524.041 293.766C537.497 302.784 566.496 330.964 579.427 334.193C572.081 357.951 563.238 381.301 555.349 404.893C549.153 387.557 544.296 369.774 539.079 352.126C533.396 332.899 527.431 313.709 522.471 294.28Z"/>
	<path fill="#F8FAF8" transform="scale(0.33724 0.33724)" d="M252.371 533.373C258.729 533.446 264.931 533.861 271.12 535.42C291.409 540.532 300.694 553.003 310.749 569.884C318.589 567.012 326.153 564.482 334.581 564.066C346.966 563.454 360.087 567.753 369.253 576.224C380.868 586.958 383.003 600.555 383.421 615.505C388.831 617.599 393.659 619.63 397.961 623.687C403.758 629.155 407.537 636.127 407.689 644.213C407.851 652.911 404.069 661.216 397.945 667.306C387.163 678.027 374.143 678.272 359.952 678.32Q358.906 682.015 357.563 685.612C353.935 695.056 346.139 703.946 336.782 708.037C331.735 710.243 326.383 710.768 321.213 708.649C309.044 703.661 305.963 690.709 301.379 679.777C283.521 676.276 264.668 676.573 246.509 676.012C245.223 685.391 242.895 693.676 236.09 700.618C230.546 706.274 223.022 709.924 215.028 709.959C209.217 709.984 203.582 707.893 199.456 703.749C192.516 696.779 191.969 687.958 191.977 678.737C177.938 678.998 164.556 676.517 154.107 666.3C146.543 658.902 142.565 648.928 142.539 638.384Q142.532 637.28 142.581 636.177Q142.629 635.074 142.733 633.975Q142.837 632.876 142.996 631.783Q143.155 630.691 143.368 629.607Q143.582 628.524 143.849 627.453Q144.117 626.382 144.438 625.326Q144.759 624.269 145.133 623.23Q145.506 622.192 145.932 621.173Q146.357 620.154 146.833 619.158Q147.309 618.161 147.834 617.19Q148.36 616.219 148.933 615.276Q149.507 614.332 150.127 613.419Q150.747 612.505 151.412 611.624Q152.077 610.743 152.785 609.896Q153.494 609.05 154.244 608.24Q154.994 607.429 155.784 606.658C168.144 594.64 183.044 593.919 199.211 593.998C198.316 578.143 199.284 564.371 210.249 551.744C221.233 539.095 236.274 534.454 252.371 533.373Z"/>
	<path fill="#0B3855" transform="scale(0.33724 0.33724)" d="M230.677 637.7C231.173 638.121 231.412 638.281 231.81 638.751C238.736 646.929 241.171 668.956 240.114 679.41C239.378 686.694 236.479 693.869 230.66 698.548C224.239 703.71 217.594 703.406 209.862 702.648C207.327 701.282 204.733 699.903 202.673 697.858C199.251 694.46 197.382 690.043 197.435 685.21C197.636 667.137 218.737 649.33 230.677 637.7Z"/>
	<path fill="#0B3855" transform="scale(0.33724 0.33724)" d="M343.593 637.058C344.039 637.454 344.478 637.871 344.85 638.34C352.277 647.709 354.735 667.29 352.933 678.808C351.781 686.174 348.342 693.274 342.167 697.692C335.192 702.683 329.213 701.981 321.284 700.645C318.735 698.821 316.203 696.971 314.128 694.601C310.468 690.422 308.484 685.353 308.978 679.769C310.48 662.808 331.646 647.394 343.593 637.058Z"/>
</svg>
